<?xml version="1.0" encoding="UTF-8"?>
<svg xmlns="http://www.w3.org/2000/svg" width="340" height="36" viewBox="0 0 340 36" fill="none">
  <path d="M329.39 35.4489C327.14 35.4903 324.918 34.9393 322.949 33.8515C321.097 32.8165 319.569 31.2882 318.537 29.4372C317.452 27.4622 316.905 25.2382 316.948 22.9865C316.901 20.7369 317.418 18.511 318.452 16.5114C319.408 14.6865 320.844 13.1562 322.607 12.085C324.454 10.9907 326.57 10.4332 328.718 10.4753C330.808 10.4237 332.871 10.9604 334.669 12.024C336.359 13.0526 337.723 14.5362 338.605 16.3041C339.559 18.2413 340.036 20.3773 339.998 22.5353C340.009 22.7475 339.974 22.9596 339.896 23.1573C339.818 23.3551 339.699 23.5338 339.546 23.6816C339.39 23.8254 339.207 23.9372 339.008 24.0104C338.809 24.0837 338.597 24.117 338.385 24.1084H319.283V21.2305H338.739L336.808 22.6207C336.856 21.0165 336.534 19.4228 335.867 17.9625C335.254 16.6426 334.28 15.5224 333.056 14.7311C331.752 13.9359 330.245 13.5337 328.718 13.5726C327.136 13.541 325.579 13.9643 324.232 14.792C322.94 15.603 321.902 16.7609 321.238 18.1332C320.509 19.6542 320.149 21.3252 320.187 23.0109C320.157 24.7158 320.578 26.3984 321.409 27.8885C322.178 29.2669 323.305 30.4128 324.672 31.2053C326.117 32.0338 327.76 32.4552 329.426 32.4247C330.538 32.4207 331.641 32.2311 332.69 31.8638C333.649 31.567 334.542 31.0866 335.317 30.4493C335.635 30.1881 336.03 30.0382 336.441 30.0225C336.83 30 337.213 30.1216 337.517 30.3639C337.698 30.5134 337.847 30.6991 337.952 30.9091C338.057 31.1191 338.117 31.3488 338.128 31.5833C338.133 31.7912 338.088 31.9973 337.997 32.1841C337.905 32.3709 337.77 32.5329 337.603 32.6564C336.478 33.5634 335.204 34.269 333.838 34.7416C332.408 35.2328 330.903 35.4722 329.39 35.4489Z" fill="#231F20"></path>
  <path d="M302.709 35.2161C302.344 35.2093 301.991 35.0878 301.699 34.8689C301.407 34.65 301.192 34.3448 301.084 33.9967L291.111 12.8765C291.03 12.6942 290.988 12.4968 290.988 12.2973C290.988 12.0978 291.03 11.9004 291.111 11.7181C291.281 11.3097 291.607 10.9852 292.016 10.8157C292.201 10.7136 292.406 10.6531 292.617 10.6384C292.829 10.6236 293.04 10.655 293.238 10.7304C293.63 10.8755 293.953 11.1629 294.142 11.5352L303.712 32.2652H301.866L311.301 11.5352C311.383 11.3378 311.507 11.1609 311.666 11.0175C311.824 10.8741 312.013 10.7677 312.218 10.706C312.64 10.5705 313.097 10.5965 313.501 10.7791C313.896 10.9598 314.203 11.2884 314.356 11.6937C314.438 11.8738 314.48 12.0692 314.48 12.2668C314.48 12.4645 314.438 12.6599 314.356 12.8399L304.518 33.9967C304.396 34.3723 304.152 34.6963 303.824 34.9173C303.497 35.1383 303.104 35.2435 302.709 35.2161Z" fill="#231F20"></path>
  <path d="M256.51 11.7299C262.23 7.86426 268.06 13.3406 269.16 18.1725C270.261 9.04602 283.645 6.89808 285.111 15.4881C286.431 23.2192 273.377 32.3098 266.41 35.889C266.41 31.594 259.81 27.2994 257.06 24.615C254.309 21.9306 250.79 15.5954 256.51 11.7299Z" fill="#BE1E2D"></path>
  <path d="M248.389 35.2162C247.242 35.2303 246.119 34.8895 245.175 34.2407C244.203 33.5445 243.442 32.5954 242.975 31.497C242.43 30.2223 242.163 28.8463 242.193 27.4608V1.91408C242.186 1.69029 242.223 1.46731 242.303 1.25801C242.382 1.04871 242.503 0.857242 242.657 0.694666C242.818 0.537394 243.01 0.414206 243.22 0.332487C243.43 0.250768 243.654 0.212199 243.879 0.219095C244.105 0.210039 244.33 0.247611 244.54 0.329451C244.75 0.411291 244.942 0.535631 245.101 0.694666C245.26 0.855026 245.383 1.04583 245.465 1.25547C245.547 1.46511 245.586 1.68919 245.578 1.91408V27.5217C245.526 28.624 245.798 29.7174 246.36 30.6678C246.557 31.0296 246.846 31.333 247.198 31.5472C247.55 31.7614 247.952 31.8787 248.365 31.8872H249.489C249.693 31.879 249.896 31.9177 250.082 32.0001C250.269 32.0826 250.434 32.2067 250.564 32.3628C250.844 32.7062 250.988 33.1401 250.968 33.5822C250.973 33.8146 250.924 34.0452 250.827 34.2564C250.73 34.4676 250.586 34.654 250.406 34.8016C249.991 35.1234 249.476 35.2876 248.951 35.265L248.389 35.2162Z" fill="#231F20"></path>
  <path d="M199.04 35.0456C198.586 35.0527 198.147 34.882 197.818 34.57C197.659 34.4097 197.535 34.2189 197.454 34.0092C197.372 33.7996 197.333 33.5755 197.341 33.3506V12.267C197.329 12.0325 197.365 11.798 197.447 11.5779C197.529 11.3578 197.655 11.1566 197.818 10.9866C198.151 10.6824 198.588 10.5166 199.04 10.5232C199.271 10.5081 199.503 10.5432 199.719 10.6262C199.935 10.7092 200.131 10.838 200.292 11.0038C200.454 11.1696 200.578 11.3684 200.655 11.5865C200.732 11.8046 200.76 12.0368 200.738 12.267V33.3384C200.748 33.5625 200.712 33.7863 200.632 33.996C200.553 34.2057 200.431 34.3969 200.274 34.5578C200.112 34.7188 199.92 34.8451 199.707 34.929C199.495 35.0129 199.268 35.0526 199.04 35.0456ZM218.362 35.0456C218.135 35.0486 217.909 35.0059 217.699 34.92C217.489 34.8341 217.299 34.7067 217.139 34.5456C216.976 34.3878 216.848 34.198 216.761 33.9882C216.675 33.7783 216.633 33.553 216.638 33.3262V21.6809C216.699 20.0907 216.337 18.5128 215.587 17.1081C214.916 15.9462 213.912 15.0118 212.703 14.4254C211.423 13.8103 210.017 13.5013 208.597 13.523C207.225 13.5007 205.866 13.7927 204.625 14.3766C203.5 14.894 202.53 15.6972 201.814 16.7057C201.126 17.6928 200.763 18.869 200.775 20.0712H198.331C198.366 18.2804 198.894 16.5338 199.858 15.0229C200.812 13.5521 202.13 12.351 203.684 11.5354C205.312 10.6728 207.132 10.2325 208.976 10.255C210.957 10.2209 212.917 10.6731 214.683 11.5719C216.363 12.4474 217.748 13.7958 218.667 15.4497C219.686 17.3655 220.187 19.513 220.121 21.6809V33.3384C220.125 33.5625 220.083 33.7849 219.999 33.9927C219.915 34.2005 219.79 34.3895 219.632 34.5485C219.474 34.7075 219.285 34.8334 219.078 34.9188C218.87 35.0041 218.647 35.0473 218.423 35.0456H218.362Z" fill="#231F20"></path>
  <path d="M177.699 35.2653C175.518 35.297 173.371 34.7319 171.49 33.6312C169.674 32.5487 168.173 31.0099 167.139 29.1682C166.06 27.2217 165.513 25.0268 165.55 22.8029C165.516 20.5577 166.081 18.3438 167.188 16.3888C168.259 14.5372 169.803 13.0015 171.661 11.9379C173.609 10.8585 175.8 10.292 178.028 10.292C180.257 10.292 182.448 10.8585 184.396 11.9379C186.247 13.0026 187.782 14.5385 188.844 16.3888C189.956 18.3441 190.537 20.5549 190.531 22.8029L189.138 23.876C189.169 25.9104 188.649 27.9156 187.634 29.6804C186.654 31.3781 185.242 32.7873 183.54 33.7654C181.763 34.7778 179.745 35.2958 177.699 35.2653ZM178.053 32.1314C179.657 32.1613 181.24 31.7535 182.629 30.9519C184.018 30.1503 185.161 28.9854 185.936 27.583C186.751 26.1222 187.173 24.475 187.158 22.8029C187.179 21.1261 186.757 19.4734 185.936 18.0106C185.175 16.6183 184.057 15.4526 182.697 14.6328C181.285 13.8252 179.686 13.4003 178.059 13.4003C176.432 13.4003 174.833 13.8252 173.421 14.6328C172.057 15.4443 170.929 16.5957 170.146 17.974C169.319 19.4349 168.897 21.0889 168.924 22.7663C168.904 24.439 169.325 26.0876 170.146 27.5464C170.931 28.9446 172.08 30.1053 173.472 30.9059C174.864 31.7064 176.447 32.1172 178.053 32.0948V32.1314ZM188.795 35.0458C188.341 35.0529 187.903 34.8821 187.573 34.5702C187.409 34.4132 187.279 34.2236 187.193 34.0136C187.107 33.8035 187.066 33.5777 187.072 33.3508V25.6685L187.928 22.1322L190.58 22.8029V33.3386C190.586 33.5655 190.545 33.7913 190.459 34.0014C190.373 34.2114 190.243 34.4011 190.079 34.558C189.91 34.7227 189.709 34.851 189.488 34.9349C189.267 35.0188 189.031 35.0566 188.795 35.0458Z" fill="#231F20"></path>
  <path d="M126.075 35.046C125.84 35.0591 125.605 35.0236 125.384 34.9418C125.163 34.86 124.962 34.7335 124.792 34.5704C124.634 34.41 124.51 34.2192 124.428 34.0096C124.346 33.7999 124.308 33.5759 124.315 33.351V12.2673C124.311 11.8148 124.482 11.3779 124.792 11.0479C124.959 10.8807 125.16 10.7508 125.381 10.6667C125.602 10.5827 125.839 10.5463 126.075 10.5602C126.302 10.5527 126.527 10.5922 126.738 10.6761C126.948 10.7601 127.139 10.8867 127.297 11.0479C127.6 11.3818 127.766 11.8171 127.762 12.2673V33.3388C127.769 33.5626 127.732 33.7855 127.652 33.9948C127.572 34.2041 127.452 34.3956 127.297 34.5582C127.137 34.7177 126.946 34.8431 126.736 34.9269C126.526 35.0108 126.301 35.0512 126.075 35.046ZM141.841 35.046C141.387 35.0531 140.948 34.8823 140.619 34.5704C140.456 34.4124 140.329 34.2223 140.245 34.0123C140.161 33.8023 140.122 33.577 140.13 33.351V20.4252C140.226 18.5982 139.633 16.8014 138.468 15.389C137.937 14.7827 137.278 14.3011 136.538 13.9785C135.799 13.656 134.997 13.5005 134.19 13.5233C133.342 13.4963 132.498 13.6437 131.709 13.9562C130.921 14.2688 130.205 14.7399 129.607 15.3403C129.004 15.9674 128.533 16.7098 128.225 17.5228C127.916 18.3359 127.775 19.2028 127.811 20.0716H125.366C125.372 18.3049 125.791 16.5638 126.589 14.9866C127.335 13.5371 128.474 12.3255 129.876 11.4892C131.278 10.6529 132.887 10.2255 134.52 10.2553C136.168 10.2132 137.795 10.6358 139.213 11.4747C140.591 12.328 141.697 13.5544 142.403 15.011C143.199 16.6904 143.592 18.5314 143.552 20.3886V33.3388C143.562 33.5657 143.525 33.7924 143.443 34.0042C143.361 34.216 143.235 34.4084 143.074 34.5691C142.913 34.7297 142.72 34.8551 142.508 34.9372C142.295 35.0193 142.068 35.0564 141.841 35.046ZM157.521 35.046C157.067 35.0531 156.628 34.8823 156.299 34.5704C156.136 34.4124 156.009 34.2223 155.925 34.0123C155.841 33.8023 155.802 33.577 155.81 33.351V20.4252C155.906 18.5982 155.313 16.8014 154.148 15.389C153.617 14.7827 152.958 14.3011 152.218 13.9785C151.479 13.656 150.677 13.5005 149.87 13.5233C149.021 13.4955 148.176 13.6473 147.391 13.9689C146.605 14.2905 145.896 14.7745 145.312 15.389C144.705 16.0558 144.239 16.8381 143.943 17.6888C143.647 18.5396 143.527 19.4413 143.588 20.3398H140.484C140.471 18.4946 140.921 16.6754 141.792 15.0476C142.585 13.5648 143.784 12.3381 145.251 11.5113C146.774 10.6689 148.496 10.2479 150.237 10.2919C151.885 10.2498 153.512 10.6724 154.93 11.5113C156.308 12.3646 157.414 13.591 158.12 15.0476C158.915 16.727 159.309 18.568 159.268 20.4252V33.3388C159.279 33.5657 159.242 33.7924 159.159 34.0042C159.077 34.216 158.952 34.4084 158.791 34.5691C158.629 34.7297 158.437 34.8551 158.224 34.9372C158.012 35.0193 157.785 35.0564 157.557 35.046H157.521Z" fill="#231F20"></path>
  <path d="M104.726 35.2653C102.55 35.2954 100.407 34.7303 98.5299 33.6312C96.718 32.547 95.2222 31.0083 94.1914 29.1682C93.1083 27.2229 92.5562 25.0279 92.5904 22.8029C92.5558 20.5577 93.1211 18.3438 94.228 16.3888C95.2925 14.5321 96.8373 12.9949 98.701 11.9379C100.649 10.8585 102.84 10.292 105.068 10.292C107.296 10.292 109.488 10.8585 111.436 11.9379C113.283 13.0081 114.817 14.5427 115.884 16.3888C116.991 18.3462 117.572 20.5556 117.571 22.8029L116.178 23.876C116.209 25.9104 115.689 27.9156 114.674 29.6804C113.694 31.3781 112.282 32.7873 110.58 33.7654C108.799 34.7794 106.777 35.2974 104.726 35.2653ZM105.093 32.1314C106.697 32.1613 108.279 31.7535 109.669 30.9519C111.058 30.1503 112.201 28.9854 112.976 27.583C113.791 26.1222 114.212 24.475 114.198 22.8029C114.219 21.1261 113.797 19.4734 112.976 18.0106C112.205 16.6136 111.074 15.4475 109.7 14.6328C108.289 13.8252 106.69 13.4003 105.062 13.4003C103.435 13.4003 101.836 13.8252 100.424 14.6328C99.0581 15.4411 97.9286 16.5933 97.1489 17.974C96.3225 19.4349 95.9007 21.0889 95.9268 22.7663C95.9069 24.439 96.3284 26.0876 97.1489 27.5464C97.9344 28.9446 99.0837 30.1053 100.475 30.9059C101.867 31.7064 103.45 32.1172 105.056 32.0948L105.093 32.1314ZM115.811 35.0458C115.357 35.0503 114.92 34.8799 114.589 34.5702C114.427 34.4122 114.299 34.2221 114.215 34.0121C114.131 33.8021 114.092 33.5768 114.1 33.3508V25.6685L114.955 22.1322L117.607 22.8029V33.3386C117.614 33.5655 117.573 33.7913 117.487 34.0014C117.4 34.2114 117.271 34.4011 117.106 34.558C116.936 34.7237 116.732 34.8525 116.51 34.9364C116.287 35.0203 116.049 35.0575 115.811 35.0458Z" fill="#231F20"></path>
  <path d="M73.3302 35.266C71.0874 35.3038 68.8756 34.7394 66.9262 33.6319C65.0646 32.5668 63.5207 31.0264 62.4532 29.1689C61.3379 27.2172 60.772 25.001 60.8156 22.7548C60.7811 20.5312 61.3287 18.3372 62.4043 16.3895C63.4323 14.5504 64.929 13.0149 66.7429 11.9386C68.6166 10.83 70.7611 10.2603 72.9391 10.2924C74.8303 10.263 76.6991 10.703 78.3776 11.5728C79.9353 12.3728 81.2768 13.5356 82.2885 14.9628V1.78092C82.2845 1.55544 82.3258 1.33144 82.4097 1.12205C82.4937 0.912664 82.6186 0.722095 82.7773 0.561509C82.9381 0.387733 83.1325 0.248393 83.3489 0.151963C83.5653 0.0555333 83.7991 0.004028 84.0361 0.000579383C84.4887 -0.0111396 84.9277 0.155313 85.2583 0.463956C85.4191 0.623532 85.5464 0.813645 85.6324 1.02308C85.7185 1.23251 85.7616 1.45703 85.7593 1.68337V22.9377C85.7392 25.1599 85.1457 27.3396 84.0361 29.2665C82.9791 31.0881 81.4622 32.6017 79.6364 33.6563C77.7152 34.7429 75.5384 35.2985 73.3302 35.266ZM73.3302 32.1321C74.9615 32.1618 76.5691 31.7397 77.9743 30.9127C79.3274 30.0998 80.4439 28.9479 81.213 27.5715C82.0345 26.1042 82.4559 24.4476 82.4351 22.767C82.45 21.0987 82.0288 19.4554 81.213 17.9991C80.4481 16.597 79.3106 15.4325 77.9254 14.6335C76.5083 13.8421 74.9115 13.4265 73.2874 13.4265C71.6634 13.4265 70.0666 13.8421 68.6494 14.6335C67.2752 15.4315 66.1433 16.5862 65.3741 17.9747C64.5719 19.443 64.1515 21.0886 64.1515 22.7609C64.1515 24.4332 64.5719 26.0788 65.3741 27.5471C66.157 28.9254 67.2857 30.0768 68.6494 30.8883C70.0646 31.7262 71.6848 32.1568 73.3302 32.1321Z" fill="#231F20"></path>
  <path d="M33.4793 35.0455C33.2443 35.0572 33.0093 35.0211 32.7887 34.9393C32.5681 34.8575 32.3665 34.7319 32.1961 34.5699C32.0418 34.4074 31.9213 34.2159 31.8416 34.0066C31.7619 33.7973 31.7245 33.5743 31.7317 33.3505V12.2669C31.7111 12.0328 31.7422 11.797 31.8228 11.5761C31.9034 11.3552 32.0315 11.1547 32.198 10.9885C32.3646 10.8223 32.5656 10.6945 32.787 10.6141C33.0083 10.5337 33.2446 10.5027 33.4793 10.5231C33.7036 10.516 33.9271 10.5533 34.1368 10.6328C34.3466 10.7124 34.5385 10.8326 34.7014 10.9865C34.8594 11.1585 34.9808 11.3606 35.0585 11.5806C35.1362 11.8007 35.1686 12.0341 35.1536 12.2669V33.3383C35.1641 33.5653 35.127 33.7919 35.0447 34.0038C34.9624 34.2156 34.8367 34.408 34.6757 34.5686C34.5147 34.7293 34.3219 34.8547 34.1096 34.9368C33.8972 35.0189 33.6701 35.0559 33.4426 35.0455H33.4793ZM52.8013 35.0455C52.5744 35.0478 52.3494 35.0048 52.1395 34.9189C51.9296 34.833 51.739 34.7061 51.5791 34.5456C51.4159 34.3877 51.2872 34.1979 51.2009 33.9881C51.1147 33.7782 51.0729 33.5529 51.078 33.3261V21.6808C51.1404 20.0744 50.7645 18.4812 49.9903 17.0714C49.3208 15.9128 48.3211 14.979 47.1183 14.3887C45.8337 13.7747 44.424 13.4659 42.9997 13.4863C41.6278 13.464 40.2689 13.756 39.0278 14.3399C37.9048 14.8607 36.9363 15.6632 36.2169 16.669C35.5122 17.663 35.1401 18.8536 35.1536 20.0711H32.7094C32.7444 18.2803 33.273 16.5337 34.237 15.0228C35.191 13.552 36.5084 12.3509 38.0623 11.5353C39.6945 10.6707 41.5186 10.2303 43.3664 10.2549C45.3481 10.2218 47.3078 10.6739 49.0737 11.5718C50.7458 12.4539 52.1255 13.8009 53.0457 15.4496C54.07 17.3633 54.5715 19.5124 54.5 21.6808V33.3383C54.5033 33.5624 54.4617 33.7848 54.3776 33.9926C54.2935 34.2004 54.1687 34.3894 54.0105 34.5484C53.8522 34.7074 53.6638 34.8333 53.4561 34.9187C53.2485 35.004 53.0258 35.0472 52.8013 35.0455Z" fill="#231F20"></path>
  <path d="M12.1373 35.2662C9.9607 35.2995 7.81694 34.7342 5.94107 33.6322C4.12626 32.5517 2.62962 31.0121 1.60249 29.1692C0.519928 27.2237 -0.032116 25.0288 0.0014941 22.8039C-0.0330569 20.5587 0.532194 18.3448 1.63915 16.3898C2.71023 14.5382 4.25352 13.0025 6.11217 11.9389C8.0522 10.8292 10.2557 10.2606 12.4917 10.2927C14.7205 10.2559 16.9174 10.8249 18.8468 11.9389C20.7008 13.0003 22.2367 14.537 23.2954 16.3898C24.4129 18.3427 24.9946 20.5551 24.9819 22.8039L23.5887 23.8769C23.6197 25.9114 23.1004 27.9166 22.0855 29.6813C21.1196 31.3736 19.7245 32.7825 18.0402 33.7664C16.2444 34.7889 14.2046 35.3072 12.1373 35.2662ZM12.4917 32.1324C14.0969 32.1663 15.6808 31.7602 17.0707 30.9582C18.4606 30.1562 19.6033 28.9891 20.3745 27.584C21.1897 26.123 21.6108 24.4759 21.5966 22.8039C21.6169 21.1272 21.1955 19.4746 20.3745 18.0116C19.6149 16.6225 18.5021 15.4576 17.148 14.6338C15.74 13.8028 14.1273 13.3805 12.4917 13.4144C10.8683 13.3853 9.26872 13.8076 7.87204 14.6338C6.50185 15.4531 5.37217 16.6181 4.59672 18.0116C3.77027 19.4725 3.34845 21.1265 3.37458 22.8039C3.35469 24.4766 3.77617 26.1251 4.59672 27.584C5.38521 28.9796 6.53517 30.1381 7.92624 30.9383C9.31731 31.7385 10.8984 32.1509 12.5039 32.1324H12.4917ZM23.2343 35.0468C22.7802 35.0539 22.3415 34.8831 22.0121 34.5712C21.8477 34.4142 21.7182 34.2246 21.6319 34.0146C21.5455 33.8045 21.5044 33.5787 21.5111 33.3518V25.6695L22.3666 22.1332L25.0186 22.8039V33.3396C25.0268 33.5656 24.9876 33.7909 24.9034 34.0009C24.8192 34.2109 24.6919 34.401 24.5297 34.559C24.3589 34.7247 24.1557 34.8535 23.9329 34.9374C23.71 35.0213 23.4722 35.0585 23.2343 35.0468Z" fill="#231F20"></path>
</svg>
