<?xml version="1.0" encoding="UTF-8"?>
<svg xmlns="http://www.w3.org/2000/svg" width="39" height="41" viewBox="0 0 39 41" fill="none">
  <path d="M28.812 26.1904L36.212 29.0093C36.9875 29.3048 37.4872 30.053 37.2966 30.8607C37.0013 32.1127 36.2768 34.131 34.5 36.5C31.0681 41.0758 19.4993 41.9438 8.99946 30.4438C-4.56823 15.5838 2.52223 4.19038 8.54327 1.88258C9.37881 1.56233 10.2463 2.06648 10.6031 2.88708L14.2763 11.3356C14.6869 12.2798 14.3135 13.3814 13.4134 13.8814L11.7333 14.8147C10.9937 15.2256 10.5858 16.061 10.7655 16.8878C12.3906 24.3631 16.6314 28.8434 22.8271 30.9894C23.7731 31.317 24.787 30.8105 25.1721 29.8863L26.2539 27.2901C26.6695 26.2927 27.8022 25.8057 28.812 26.1904Z" fill="#E2E9FF" stroke="#011093" stroke-width="2" stroke-linecap="round" stroke-linejoin="round"></path>
</svg>
