<?xml version="1.0" encoding="UTF-8"?>
<svg xmlns="http://www.w3.org/2000/svg" width="12" height="22" viewBox="0 0 12 22" fill="none">
  <path fill-rule="evenodd" clip-rule="evenodd" d="M7.96721 0.227539C5.30538 0.227539 3.14754 2.5543 3.14754 5.42451V8.03714H0.491803C0.220188 8.03714 0 8.27456 0 8.56744V12.0568C0 12.3497 0.220188 12.5871 0.491803 12.5871H3.14754V20.6972C3.14754 20.9901 3.36773 21.2275 3.63934 21.2275H7.10164C7.37325 21.2275 7.59344 20.9901 7.59344 20.6972V12.5871H10.7213C10.9482 12.5871 11.1456 12.4198 11.1992 12.1821L11.9861 8.69274C12.0217 8.53464 11.9881 8.36765 11.8949 8.23974C11.8016 8.11182 11.6591 8.03714 11.5082 8.03714H7.59344V5.77804C7.59344 5.13371 8.07785 4.61138 8.67541 4.61138H11.5082C11.7798 4.61138 12 4.37395 12 4.08107V0.757842C12 0.464964 11.7798 0.227539 11.5082 0.227539H7.96721ZM4.13115 5.42451C4.13115 3.14006 5.84861 1.28815 7.96721 1.28815H11.0164V3.55077H8.67541C7.53462 3.55077 6.60983 4.54796 6.60983 5.77804V8.56744C6.60983 8.86032 6.83002 9.09774 7.10164 9.09774H10.8825L10.3348 11.5265H7.10164C6.83002 11.5265 6.60983 11.764 6.60983 12.0568V20.1669H4.13115V12.0568C4.13115 11.764 3.91096 11.5265 3.63934 11.5265H0.983606V9.09774H3.63934C3.91096 9.09774 4.13115 8.86032 4.13115 8.56744V5.42451Z" fill="#425DA2"></path>
  <path d="M7.96721 1.28815C5.84861 1.28815 4.13115 3.14006 4.13115 5.42451V8.56744C4.13115 8.86032 3.91096 9.09774 3.63934 9.09774H0.983606V11.5265H3.63934C3.91096 11.5265 4.13115 11.764 4.13115 12.0568V20.1669H6.60983V12.0568C6.60983 11.764 6.83002 11.5265 7.10164 11.5265H10.3348L10.8825 9.09774H7.10164C6.83002 9.09774 6.60983 8.86032 6.60983 8.56744V5.77804C6.60983 4.54796 7.53462 3.55077 8.67541 3.55077H11.0164V1.28815H7.96721Z" fill="#99B4F9"></path>
</svg>
