<?xml version="1.0" encoding="UTF-8"?>
<svg xmlns="http://www.w3.org/2000/svg" width="19" height="20" viewBox="0 0 19 20" fill="none">
  <path d="M14.5814 3.76242C13.8493 3.76242 13.2558 4.35591 13.2558 5.088C13.2558 5.8201 13.8493 6.41359 14.5814 6.41359C15.3135 6.41359 15.907 5.8201 15.907 5.088C15.907 4.35591 15.3135 3.76242 14.5814 3.76242Z" fill="#D63888"></path>
  <path fill-rule="evenodd" clip-rule="evenodd" d="M9.5 5.52986C7.18169 5.52986 5.30233 7.40923 5.30233 9.72754C5.30233 12.0459 7.18169 13.9252 9.5 13.9252C11.8183 13.9252 13.6977 12.0459 13.6977 9.72754C13.6977 7.40923 11.8183 5.52986 9.5 5.52986ZM6.62791 9.72754C6.62791 8.14133 7.91379 6.85545 9.5 6.85545C11.0862 6.85545 12.3721 8.14133 12.3721 9.72754C12.3721 11.3138 11.0862 12.5996 9.5 12.5996C7.91379 12.5996 6.62791 11.3138 6.62791 9.72754Z" fill="#D63888"></path>
  <path fill-rule="evenodd" clip-rule="evenodd" d="M5.0814 0.227539C2.27502 0.227539 0 2.50256 0 5.30893V14.1461C0 16.9525 2.27502 19.2275 5.0814 19.2275H13.9186C16.725 19.2275 19 16.9525 19 14.1461V5.30893C19 2.50256 16.725 0.227539 13.9186 0.227539H5.0814ZM1.32558 5.30893C1.32558 3.23466 3.00712 1.55312 5.0814 1.55312H13.9186C15.9929 1.55312 17.6744 3.23466 17.6744 5.30893V14.1461C17.6744 16.2204 15.9929 17.902 13.9186 17.902H5.0814C3.00712 17.902 1.32558 16.2204 1.32558 14.1461V5.30893Z" fill="#D63888"></path>
  <path fill-rule="evenodd" clip-rule="evenodd" d="M5.0814 1.55312C3.00712 1.55312 1.32558 3.23466 1.32558 5.30893V14.1461C1.32558 16.2204 3.00712 17.902 5.0814 17.902H13.9186C15.9929 17.902 17.6744 16.2204 17.6744 14.1461V5.30893C17.6744 3.23466 15.9929 1.55312 13.9186 1.55312H5.0814ZM14.5814 3.76242C13.8493 3.76242 13.2558 4.35591 13.2558 5.088C13.2558 5.8201 13.8493 6.41359 14.5814 6.41359C15.3135 6.41359 15.907 5.8201 15.907 5.088C15.907 4.35591 15.3135 3.76242 14.5814 3.76242ZM9.5 5.52986C7.18169 5.52986 5.30233 7.40923 5.30233 9.72754C5.30233 12.0459 7.18169 13.9252 9.5 13.9252C11.8183 13.9252 13.6977 12.0459 13.6977 9.72754C13.6977 7.40923 11.8183 5.52986 9.5 5.52986Z" fill="#FFDBED"></path>
  <path d="M9.5 6.85545C7.91379 6.85545 6.62791 8.14133 6.62791 9.72754C6.62791 11.3138 7.91379 12.5996 9.5 12.5996C11.0862 12.5996 12.3721 11.3138 12.3721 9.72754C12.3721 8.14133 11.0862 6.85545 9.5 6.85545Z" fill="#FFDBED"></path>
</svg>
