<?xml version="1.0" encoding="UTF-8"?>
<svg version="1.1" xmlns="http://www.w3.org/2000/svg" width="512" height="512">
<path d="M0 0 C0.08996372 5.42239145 -0.19662789 10.63405636 -0.9289093 16.01176453 C-1.07886747 17.15982086 -1.07886747 17.15982086 -1.23185509 18.33107024 C-1.56539663 20.87463137 -1.90633239 23.41714329 -2.24731445 25.9597168 C-2.48917856 27.79194065 -2.73060173 29.62422274 -2.97161865 31.45655823 C-3.62596213 36.42027117 -4.28692338 41.38308166 -4.94943261 46.34571052 C-5.50307892 50.49758082 -6.05344677 54.64988298 -6.60381287 58.80218917 C-7.90329256 68.60597845 -9.20809636 78.40904889 -10.51635742 88.21166992 C-11.86268656 98.30014068 -13.20069853 108.3896891 -14.53447372 118.47982663 C-15.68237865 127.16183375 -16.83517672 135.84318146 -17.99191064 144.52401668 C-18.68159655 149.70005933 -19.36954633 154.8763166 -20.05291176 160.05319786 C-20.69652048 164.92705379 -21.34629175 169.80005062 -22.00064087 174.67247581 C-22.23859698 176.45183412 -22.47446905 178.23147268 -22.70799828 180.01141739 C-25.40407867 200.53796144 -28.68804074 216.90144784 -44 232 C-44.63679688 232.64710938 -45.27359375 233.29421875 -45.9296875 233.9609375 C-57.54475387 244.99766031 -72.66347271 248.52678405 -88.26049805 248.421875 C-104.99576553 247.88231393 -118.33992592 240.6188724 -130 229 C-130.56460938 228.45859375 -131.12921875 227.9171875 -131.7109375 227.359375 C-141.75001981 216.84224115 -145.87880412 201.78444877 -146.4375 187.625 C-145.97176733 170.28704277 -139.06546209 155.41610319 -127.09375 143.02734375 C-114.91175344 131.66912974 -98.72522237 126.56797641 -82.30078125 126.79296875 C-72.0729433 127.43447811 -57.66235804 130.33764196 -50 138 C-46.32837264 112.98598113 -42.89741154 87.94400985 -39.625 62.875 C-39.53447357 62.18152592 -39.44394714 61.48805183 -39.35067749 60.77356339 C-38.22963751 52.1829138 -37.1127983 43.59172111 -36 35 C-37.72479584 35.17126656 -37.72479584 35.17126656 -39.48443604 35.34599304 C-54.07283086 36.79443789 -68.66136401 38.24148617 -83.25 39.6875 C-84.40508938 39.80199242 -85.56017876 39.91648483 -86.75027084 40.03444672 C-120.8283574 43.41183173 -154.90885615 46.7569074 -189 50 C-189.13953598 51.09646851 -189.27907196 52.19293701 -189.4228363 53.32263184 C-191.12018972 66.65583023 -192.8236473 79.98824482 -194.5293808 93.32037354 C-195.00247644 97.01936254 -195.47504874 100.71841815 -195.9475708 104.41748047 C-197.77942999 118.74960399 -199.62441312 133.07996097 -201.49154091 147.40753174 C-202.37485903 154.18844776 -203.25219648 160.97004406 -204.11645508 167.75341797 C-204.97201914 174.46841612 -205.84338862 181.18121405 -206.72433281 187.89292908 C-207.05200287 190.4085783 -207.37457646 192.92489755 -207.69160652 195.44190979 C-209.93480405 213.21528181 -212.11707879 229.21101903 -223 244 C-223.43699219 244.63164062 -223.87398438 245.26328125 -224.32421875 245.9140625 C-232.96944078 257.28525544 -248.41962152 264.66391722 -262.23046875 266.71875 C-278.69591526 268.39084048 -294.51073918 264.99250106 -307.85546875 254.82421875 C-310.35032507 252.63886049 -312.69081638 250.3796614 -315 248 C-315.64582031 247.36320313 -316.29164063 246.72640625 -316.95703125 246.0703125 C-322.01687635 240.75692397 -325.14603702 234.71978557 -328 228 C-328.34289062 227.19433594 -328.68578125 226.38867188 -329.0390625 225.55859375 C-333.59760372 212.28770038 -332.65004359 194.69494169 -327 182 C-326.5875 181.06285156 -326.175 180.12570313 -325.75 179.16015625 C-318.50753548 164.49005055 -305.81816799 153.77823662 -290.4375 148.5 C-273.64908014 143.47045951 -256.04103545 144.91844138 -240.5625 153.25 C-239.03182428 154.15013536 -237.50669402 155.060274 -236 156 C-234.3573338 154.3573338 -234.53910029 152.32396882 -234.24108887 150.06074524 C-234.09811874 148.99102982 -233.95514862 147.92131439 -233.80784607 146.81918335 C-233.65404984 145.63531036 -233.5002536 144.45143738 -233.34179688 143.23168945 C-233.09527122 141.3732415 -233.09527122 141.3732415 -232.84376526 139.47724915 C-232.39237854 136.06831013 -231.94477595 132.65891271 -231.49874306 129.24927163 C-231.03124661 125.68286919 -230.5587862 122.11712477 -230.08679199 118.55131531 C-229.19221013 111.78739899 -228.30180214 105.02294038 -227.4130187 98.25825995 C-226.11038793 88.34489869 -224.80227385 78.43226074 -223.49326324 68.5197401 C-223.39717065 67.79206678 -223.30107806 67.06439346 -223.20207357 66.31466943 C-223.01038823 64.86313753 -222.81868996 63.41160733 -222.6269784 61.9600789 C-222.0663829 57.71441805 -221.50724653 53.46856826 -220.94937897 49.22254813 C-220.68534732 47.2137438 -220.42087678 45.2049978 -220.15623474 43.1962738 C-219.83407001 40.75044152 -219.51265893 38.3045098 -219.19215393 35.85845947 C-219.04918381 34.77464493 -218.90621368 33.69083038 -218.75891113 32.57417297 C-218.6357679 31.63708653 -218.51262466 30.7000001 -218.38574982 29.7345171 C-217.97370606 26.81360658 -217.49627289 23.90768254 -217 21 C-210.28516836 20.31498543 -203.57032274 19.63010797 -196.85546875 18.9453125 C-195.80193396 18.83786901 -194.74839916 18.73042553 -193.66293907 18.61972618 C-180.63107943 17.29077429 -167.59909995 15.96300811 -154.56689453 14.63745117 C-153.34199436 14.51285617 -152.11709419 14.38826117 -150.85507584 14.25989056 C-145.82506512 13.74825729 -140.79505331 13.23663477 -135.76502991 12.72512627 C-120.75436088 11.1985734 -105.74412117 9.66795738 -90.73472309 8.12895584 C-81.54483284 7.18676656 -72.35460965 6.24787626 -63.1641264 5.31148911 C-57.74548508 4.75922993 -52.32704315 4.20515233 -46.9090271 3.64678955 C-41.82687873 3.123069 -36.74427222 2.60404766 -31.66127968 2.08858681 C-29.80859812 1.89986204 -27.95609051 1.70941994 -26.10378075 1.51708031 C-17.37448652 0.61149167 -8.78990377 -0.25879075 0 0 Z M-108 168 C-113.49082887 175.18932526 -116.12546299 182.93858003 -115 192 C-112.96843926 200.89772171 -108.59269477 208.34245867 -100.84375 213.41015625 C-92.89707016 217.54658102 -84.14572367 218.37126393 -75.4375 216.0625 C-68.2672965 213.32853751 -61.94897832 207.48144719 -58.4375 200.6875 C-55.36204801 192.79829707 -54.63224569 184.91452794 -57.5625 176.8125 C-61.70739745 167.71394461 -67.75028181 162.61002402 -77 159 C-88.16384526 155.67641248 -100.31251963 159.26878862 -108 168 Z M-293 186 C-299.3420853 195.31167347 -300.98165886 202.81811579 -300 214 C-297.74032575 221.69099891 -292.73444861 228.37242108 -285.69140625 232.28125 C-277.4520222 236.06947255 -270.26777797 237.28307565 -261.5 234.4375 C-252.86505088 231.02896745 -247.16776345 225.22820252 -243 217 C-240.5471918 209.64157541 -240.82486836 200.34083521 -244.25 193.375 C-245.1315472 191.89517284 -246.04388451 190.43277949 -247 189 C-247.556875 188.0925 -248.11375 187.185 -248.6875 186.25 C-256.11766542 179.02064986 -263.72009572 176.62013508 -273.828125 176.71875 C-281.32500109 177.38349763 -287.80386217 180.56767408 -293 186 Z " fill="#be1e2d" transform="translate(512,0)"/>
<path d="M0 0 C1.73095747 3.09973675 2.50819888 5.91291653 3.14491272 9.39804077 C3.34815659 10.49397552 3.55140045 11.58991028 3.76080322 12.71905518 C3.97645935 13.91697693 4.19211548 15.11489868 4.41430664 16.34912109 C4.64707809 17.61468842 4.87984955 18.88025574 5.11967468 20.18417358 C5.75766358 23.65479427 6.38780826 27.12679623 7.01615453 30.59917402 C7.54297004 33.5063586 8.07363315 36.41283531 8.60429758 39.31931937 C9.85837488 46.1882762 11.10613992 53.05835892 12.34985352 59.92919922 C13.62765678 66.98782102 14.91529594 74.04459592 16.2080279 81.1004976 C17.3210008 87.17703451 18.42806337 93.25462803 19.53046125 99.33309233 C20.18732174 102.95471894 20.8462273 106.57593968 21.51069832 110.19617844 C22.25407681 114.24823898 22.98508096 118.30244271 23.71508789 122.35693359 C24.04160843 124.12345276 24.04160843 124.12345276 24.37472534 125.92565918 C27.45736005 143.21545817 28.65154177 158.01607839 18.87890625 173.37890625 C12.54268186 182.21800515 3.64198164 188.72695745 -6.97265625 191.52734375 C-17.94481269 193.24041592 -28.97005999 193.13494536 -39 188 C-39.85980469 187.57589844 -40.71960938 187.15179688 -41.60546875 186.71484375 C-52.64021457 180.72169133 -59.12085384 171.46509523 -63.109375 159.73828125 C-66.03962674 147.43893515 -64.71164252 134.3491282 -58.4921875 123.328125 C-51.56105927 112.68964911 -42.51543824 105.51028826 -30.171875 102.25390625 C-24.21897822 101.04836151 -19.25553048 101 -13 101 C-16.3 82.85 -19.6 64.7 -23 46 C-35.96418427 51.27580564 -35.96418427 51.27580564 -48.734375 56.9453125 C-49.45395889 57.27796616 -50.17354279 57.61061981 -50.91493225 57.95335388 C-52.42530207 58.65185076 -53.93499426 59.35181478 -55.44400024 60.05325317 C-59.43698933 61.90905276 -63.43542028 63.753059 -67.43359375 65.59765625 C-68.23443893 65.96739059 -69.03528412 66.33712494 -69.86039734 66.71806335 C-77.81982238 70.3879012 -85.81056593 73.98646853 -93.8125 77.5625 C-94.44208618 77.8439386 -95.07167236 78.1253772 -95.72033691 78.41534424 C-99.14578418 79.94605349 -102.57255612 81.47376805 -106 83 C-104.63283174 93.6645246 -102.69830058 104.17345507 -100.6402092 114.72174454 C-99.67554547 119.67943984 -98.73032075 124.64086321 -97.78125 129.6015625 C-96.5818624 135.86329092 -95.37708026 142.12384389 -94.15332031 148.38085938 C-93.15578701 153.48390554 -92.17677501 158.59022121 -91.20921707 163.69903183 C-90.84187892 165.6208022 -90.46810922 167.54135694 -90.08720016 169.46048355 C-86.34552419 188.34267743 -83.2263647 207.34877426 -94.25 224.25 C-101.35172997 233.76420724 -110.50733647 239.89166396 -122 243 C-135.91530556 244.54032851 -148.40982808 243.07989844 -159.9375 234.625 C-168.97941757 226.93854357 -175.89038151 216.9797028 -177.23681641 204.87011719 C-178.07344549 190.8330023 -176.21167628 178.9650666 -166.80078125 167.921875 C-160.11096878 160.78220529 -151.75073523 155.0308761 -142 153 C-139.24029592 152.93073032 -136.50803958 152.9058264 -133.75 152.9375 C-133.00492188 152.94201172 -132.25984375 152.94652344 -131.4921875 152.95117188 C-129.6614236 152.96290754 -127.83070127 152.9808415 -126 153 C-126.20044922 151.94399597 -126.40089844 150.88799194 -126.60742188 149.79998779 C-128.49489419 139.85383607 -130.37853748 129.90696587 -132.25842285 119.95937729 C-133.22503996 114.84510881 -134.19300991 109.7311041 -135.1640625 104.61767578 C-136.10092031 99.68404189 -137.03423628 94.74975006 -137.96508789 89.81497955 C-138.32106145 87.93126753 -138.67831614 86.04779715 -139.03686523 84.16457367 C-139.53837508 81.52928703 -140.03534594 78.89318235 -140.53125 76.25683594 C-140.75566772 75.08618843 -140.75566772 75.08618843 -140.98461914 73.89189148 C-141.61670105 70.5081397 -142 67.457639 -142 64 C-126.88464375 56.89644713 -111.71222015 49.94176838 -96.4375 43.1875 C-84.4198372 37.87338864 -72.44054285 32.48522531 -60.5 27 C-48.1192186 21.31402975 -35.70238128 15.71498145 -23.25 10.1875 C-22.47760986 9.84452881 -21.70521973 9.50155762 -20.90942383 9.14819336 C-18.71604379 8.17474413 -16.52223138 7.20227963 -14.328125 6.23046875 C-13.68800476 5.94680954 -13.04788452 5.66315033 -12.3883667 5.37089539 C-8.27133153 3.55062742 -4.14019131 1.7667253 0 0 Z M-29 136 C-32.17151079 139.4093741 -33.24805676 142.00070681 -33.4375 146.5625 C-33.18743621 151.70174206 -31.37841876 154.44927889 -28 158.25 C-24.48795561 161.32303884 -20.82561498 161.4088048 -16.3515625 161.3359375 C-12.32345523 160.7604936 -9.68518384 159.01176025 -7 156 C-4.81115298 152.32424655 -3.97708407 149.1457966 -4.0625 144.875 C-5.79662843 139.55700614 -8.047453 136.24422411 -13 133.625 C-19.11305077 130.68787014 -23.6584379 132.4863905 -29 136 Z M-142.875 188.5625 C-146.33951027 192.53649707 -146.34056245 195.31908992 -146.28125 200.45703125 C-145.75671272 205.19972252 -143.33469568 207.82232734 -139.875 210.875 C-135.53723335 212.57238695 -131.58889386 212.77196345 -127 212 C-122.64709249 209.99096576 -119.76586283 207.50542574 -118 203 C-117.29560649 198.03648296 -117.46689293 194.08595884 -119.6875 189.5625 C-122.8260058 186.08469628 -125.41129673 184.48351839 -129.875 183.125 C-135.33205686 182.90671773 -138.87277088 184.99529578 -142.875 188.5625 Z " fill="#be1e2d" transform="translate(177,269)"/>
<path d="M0 0 C3.35994819 1.2502218 6.22897258 2.66225478 9.19140625 4.67578125 C10.0309082 5.24143799 10.87041016 5.80709473 11.73535156 6.38989258 C13.13479004 7.34158325 13.13479004 7.34158325 14.5625 8.3125 C16.71387435 9.7618848 18.8660794 11.20996015 21.01953125 12.65625 C21.6199826 13.05999344 22.22043396 13.46373688 22.83908081 13.87971497 C30.19305896 18.81588379 37.60075371 23.67037354 45.00268555 28.53417969 C51.67219979 32.91682269 58.33295887 37.31268417 64.99150085 41.7119751 C69.23314263 44.51434009 73.47615152 47.31446471 77.7265625 50.10351562 C81.13656274 52.34174253 84.53795673 54.5923691 87.9317627 56.85507202 C89.13450072 57.6537684 90.34044339 58.44766188 91.54968262 59.23648071 C93.18217748 60.30240417 94.80246026 61.38696376 96.421875 62.47265625 C97.31487305 63.06312744 98.20787109 63.65359863 99.12792969 64.26196289 C99.74571289 64.83551514 100.36349609 65.40906738 101 66 C101 70.55995126 100.19158173 71.71262741 97.71875 75.421875 C97.04199219 76.44667969 96.36523438 77.47148438 95.66796875 78.52734375 C94.95253906 79.59082031 94.23710937 80.65429688 93.5 81.75 C92.78457031 82.82894531 92.06914062 83.90789062 91.33203125 85.01953125 C89.56276801 87.6852212 87.78521026 90.34497453 86 93 C81.11261443 91.34709878 77.11517523 88.61088361 72.85546875 85.7734375 C72.08568192 85.26575836 71.31589508 84.75807922 70.52278137 84.23501587 C68.07487548 82.61921927 65.63115711 80.9972133 63.1875 79.375 C61.52436131 78.27562891 59.86095279 77.1766659 58.19726562 76.078125 C54.12836901 73.39013469 50.0632155 70.69656951 46 68 C46.19822861 68.96307068 46.39645721 69.92614136 46.60069275 70.918396 C48.47665184 80.0371786 50.34517629 89.15745779 52.20661068 98.27921677 C53.16360495 102.96766991 54.1231237 107.65557545 55.08862305 112.34228516 C56.02195108 116.87331658 56.94837158 121.40571228 57.87021065 125.93909454 C58.22140262 127.66015183 58.57499465 129.38072133 58.93113518 131.10076141 C62.78283977 149.71975106 65.42679352 166.13656549 55.0625 183.1875 C54.381875 184.115625 53.70125 185.04375 53 186 C52.319375 186.969375 51.63875 187.93875 50.9375 188.9375 C43.39406296 197.67321281 31.73922298 202.15745833 20.51953125 203.37890625 C8.15413215 203.80435283 -2.22522589 200.51114221 -12 193 C-12.886875 192.401875 -13.77375 191.80375 -14.6875 191.1875 C-22.1381364 184.1396007 -27.94090259 173.20781453 -28.23828125 162.83984375 C-28.59875997 146.94955217 -25.27005223 135.747329 -14.375 123.8125 C-5.66213908 115.46614565 5.10334872 112.47861496 16.77734375 111.45703125 C17.75823975 111.37042236 18.73913574 111.28381348 19.74975586 111.19458008 C20.49233643 111.13036865 21.23491699 111.06615723 22 111 C21.88661789 110.44008677 21.77323578 109.88017353 21.65641785 109.30329323 C18.90028085 95.69201713 16.14630465 82.0803054 13.39466858 68.46811867 C12.06396996 61.88543329 10.73254338 55.30289671 9.39941406 48.72070312 C8.11385145 42.37335499 6.83030287 36.02560156 5.54800415 29.67759323 C5.05745706 27.25086232 4.56622515 24.82426973 4.0743103 22.3978157 C3.38759246 19.00987307 2.70326992 15.62145509 2.01953125 12.23291016 C1.813815 11.22087021 1.60809875 10.20883026 1.39614868 9.16612244 C1.1184816 7.78628426 1.1184816 7.78628426 0.83520508 6.37857056 C0.67296951 5.57661066 0.51073395 4.77465076 0.34358215 3.94838905 C0 2 0 2 0 0 Z M5.6875 148.5625 C2.58841776 153.03895213 2.35785258 156.63671242 3 162 C5.36316288 166.81721665 8.20321055 169.60160527 13 172 C17.40123912 172.86264287 20.26181136 172.38329026 24.25 170.3125 C27.95337227 167.1983006 30.47417733 164.76526183 31.875 160.0625 C32.08522025 154.91210399 30.65442354 151.91973038 27.6875 147.75 C24.2034916 144.18496815 21.95348624 143.20781769 17.0625 142.6875 C12.08424845 143.19548485 9.03087559 144.8576784 5.6875 148.5625 Z " fill="#be1e2d" transform="translate(53,39)"/>
<path d="M0 0 C2.35280917 2.11586079 3.52376244 3.81320821 4.53955078 6.80151367 C4.80541992 7.56910507 5.07128906 8.33669647 5.34521484 9.12754822 C5.62574707 9.96588699 5.9062793 10.80422577 6.1953125 11.66796875 C6.65260742 12.99816795 6.65260742 12.99816795 7.11914062 14.35523987 C8.12883457 17.29673811 9.12668244 20.24212342 10.125 23.1875 C11.19115179 26.30109776 12.26065162 29.4135314 13.33053589 32.52584839 C14.07520208 34.69214069 14.81894003 36.85875228 15.5617981 39.02566528 C20.00476362 51.96952311 24.59917148 64.85942818 29.19439697 77.74984741 C33.60356207 90.12223111 37.90381135 102.52023996 42 115 C38.0948874 116.4692112 34.18965328 117.93799874 30.28125 119.3984375 C27.71668054 120.35674072 25.15431171 121.32004259 22.59375 122.2890625 C21.6346875 122.64742188 20.675625 123.00578125 19.6875 123.375 C18.84574219 123.69210937 18.00398437 124.00921875 17.13671875 124.3359375 C15 125 15 125 12 125 C7.05 111.14 2.1 97.28 -3 83 C-5.77895378 86.70527171 -7.78072414 90.361677 -9.7734375 94.5 C-10.13367508 95.24016861 -10.49391266 95.98033722 -10.86506653 96.74293518 C-12.03947855 99.15983402 -13.20734826 101.57982886 -14.375 104 C-15.18645029 105.67317066 -15.99805634 107.34626578 -16.80981445 109.01928711 C-20.54574482 116.73569009 -24.24498204 124.4670548 -27.83203125 132.25390625 C-28.12259399 132.88428802 -28.41315674 133.5146698 -28.71252441 134.16415405 C-30.04445595 137.0596636 -31.36624747 139.95929945 -32.67529297 142.86523438 C-39.77239514 158.44057502 -47.31595931 171.55918429 -64 178 C-74.7997258 181.66465516 -87.69643054 181.51359584 -98.32421875 177.32421875 C-110.89905486 171.10105168 -118.81772844 161.97218294 -124 149 C-127.61610232 137.28913652 -126.25723418 124.98326631 -121 114 C-119.22364135 110.79639364 -117.25448083 107.88529663 -115 105 C-114.52175781 104.38382812 -114.04351562 103.76765625 -113.55078125 103.1328125 C-107.62111936 96.41153329 -96.93536044 90.58028117 -87.88452148 89.82299805 C-73.77897979 89.44110926 -63.49125975 90.27039975 -51.77734375 98.828125 C-50.07653025 100.18348624 -50.07653025 100.18348624 -48 100 C-36.08418856 75.65646967 -36.08418856 75.65646967 -24.5625 51.125 C-16.66529473 33.94403772 -8.31744132 16.98033099 0 0 Z M-91.375 125.25 C-94.09333742 129.85026333 -95.29473816 133.29051867 -94.375 138.625 C-92.72285066 142.68027565 -90.98088515 145.79369174 -87.171875 148.11328125 C-83.20826863 149.73151622 -79.19815731 149.53720496 -75 149 C-70.59391257 146.83701163 -67.8012503 144.60319521 -66 140 C-65.22573023 134.94143747 -65.21944694 130.48696112 -68 126.0625 C-71.05948015 122.34553844 -74.43498891 121.27221621 -79 120 C-83.70705559 120 -88.01918333 122.07080526 -91.375 125.25 Z " fill="#be1e2d" transform="translate(409,274)"/>
</svg>
